# xmcd
#
# Track frame offsets:
#	183
#	10840
#	21623
#	32763
#	44605
#	56100
#	66468
#	80593
#	90618
#	104385
#	111950
#	123478
#	133990
#	143563
#	154140
#	166573
#	175673
#	186660
#
# Disc length: 2653
#
# Revision: 2
# Processed by: cddbd v1.5.1PL0 Copyright (c) Steve Scherf et al.
# Submitted via: audiograbber 1.80
# Normalized: r1:DSETVAR1,TDELIM( - )
#
DISCID=040a5b12
DTITLE=Various Artist - 1960-69 - Le temps des idoles - CD 1
DYEAR=1900
DGENRE=
TTITLE0=Laisse les filles - Johnny Hallyday
TTITLE1=Shazam - Les Fantômes
TTITLE2=Le vagabond - Les Cyclones
TTITLE3=Lucille - Les Copains
TTITLE4=Adieu bye bye - Les Gams
TTITLE5=The hully gully - Lucky Jack
TTITLE6=Barbara - José Salcy
TTITLE7=Itsy bitsy petit bikini - Johnny Hallyday
TTITLE8=Fort chabrol - Les Fantômes
TTITLE9=20e étage - Les Cyclones
TTITLE10=Infidèle - Les Copains
TTITLE11=24.000 Baisers - Johnny Hallyday
TTITLE12=Les parents twist - Stella
TTITLE13=Le soleil de nos vacances - Micky Amline
TTITLE14=Les boutons dorés - Jean-Jacques Debout
TTITLE15=Adolescence - Michel Page
TTITLE16=Je me sens bien auprès de toi - Petula Clark
TTITLE17=Va pas prendre un tambour - Françoise Hardy
EXTD=
EXTT0=
EXTT1=
EXTT2=
EXTT3=
EXTT4=
EXTT5=
EXTT6=
EXTT7=
EXTT8=
EXTT9=
EXTT10=
EXTT11=
EXTT12=
EXTT13=
EXTT14=
EXTT15=
EXTT16=
EXTT17=
PLAYORDER=
